# xmcd
#
# Track frame offsets:
#	183
#	13240
#	27445
#	36990
#	52105
#	64603
#	78723
#	87660
#	102153
#	114728
#	126515
#	142008
#	155468
#	166723
#	177743
#	187733
#	202480
#	211838
#
# Disc length: 3046 seconds
#
# Revision: 0
# Processed by: cddbd v1.5.2PL0 Copyright (c) Steve Scherf et al.
# Submitted via: EasyCDDAExtractor 2011.0.0.0
#
DISCID=110be412
DTITLE=하춘화 - 하춘화 전집(박춘석음악기획)
DYEAR=1900
DGENRE=Acid Punk
TTITLE0=물새 한마리
TTITLE1=알고계세요
TTITLE2=연포아가씨
TTITLE3=하동포구 아가씨
TTITLE4=쌓인 정
TTITLE5=강원도 아리랑
TTITLE6=잘했군 잘했어
TTITLE7=서울손님
TTITLE8=두줄기 가로수
TTITLE9=우리사이
TTITLE10=대관령 아리랑
TTITLE11=약속시간
TTITLE12=나는 너의 그림자
TTITLE13=첫사랑의 이야기
TTITLE14=숙녀 초년생
TTITLE15=호반에서 만난사람
TTITLE16=첫사랑의 화원
TTITLE17=비오는 양산도
EXTD=
EXTT0=
EXTT1=
EXTT2=
EXTT3=
EXTT4=
EXTT5=
EXTT6=
EXTT7=
EXTT8=
EXTT9=
EXTT10=
EXTT11=
EXTT12=
EXTT13=
EXTT14=
EXTT15=
EXTT16=
EXTT17=
PLAYORDER=
